<?xml version="1.0" standalone="no"?>
<!DOCTYPE svg PUBLIC "-//W3C//DTD SVG 20010904//EN"
 "http://www.w3.org/TR/2001/REC-SVG-20010904/DTD/svg10.dtd">
<svg version="1.0" xmlns="http://www.w3.org/2000/svg"
 width="300.000000pt" height="169.000000pt" viewBox="0 0 300.000000 169.000000"
 preserveAspectRatio="xMidYMid meet">
<metadata>
Created by potrace 1.10, written by Peter Selinger 2001-2011
</metadata>
<g transform="translate(0.000000,169.000000) scale(0.100000,-0.100000)"
fill="#000000" stroke="none">
<path d="M595 1175 c22 -19 43 -34 47 -35 4 0 12 -9 17 -19 8 -15 7 -20 -5
-25 -11 -4 -18 1 -21 14 -7 26 -23 26 -23 -1 0 -21 -1 -21 -26 -4 -44 28 -36
11 13 -30 26 -22 44 -33 41 -25 -5 14 17 17 78 11 7 0 28 -17 47 -38 l36 -36
-1 31 c-1 20 -6 32 -15 32 -7 0 -13 7 -13 15 0 9 9 15 25 15 28 0 75 20 75 31
0 15 -44 20 -95 10 -31 -6 -51 -6 -53 0 -2 5 -10 9 -17 9 -8 0 -40 18 -71 40
-70 49 -93 52 -39 5z"/>
<path d="M402 985 c-80 -31 -166 -80 -198 -113 -89 -97 59 -205 376 -272 595
-127 1572 -93 1958 68 95 39 87 55 -10 20 -129 -46 -318 -82 -563 -108 -274
-29 -839 -21 -1060 15 -16 3 -52 7 -80 11 -146 16 -341 67 -443 116 -99 48
-139 121 -93 167 28 28 100 67 149 82 23 7 42 18 42 26 0 16 -2 16 -78 -12z
m-125 -222 c30 -41 29 -47 -4 -26 -61 40 -80 82 -50 112 10 10 14 6 21 -21 5
-18 20 -47 33 -65z"/>
<path d="M1931 956 c-14 -17 -4 -26 29 -26 15 0 33 -7 40 -15 11 -13 -9 -15
-174 -15 -159 0 -186 -2 -186 -15 0 -13 27 -15 185 -15 l185 0 0 -66 0 -65
-32 3 c-29 3 -33 7 -36 36 -3 29 -1 32 22 32 19 0 26 5 26 20 0 16 -7 20 -33
20 -46 0 -57 -15 -57 -82 l0 -59 72 3 71 3 -2 78 -2 77 130 0 c110 0 131 2
131 15 0 17 -23 19 -171 15 -91 -2 -97 -1 -104 19 -11 35 -75 60 -94 37z"/>
<path d="M1170 932 l-29 -29 -220 -2 c-216 -2 -221 -1 -221 19 0 13 -7 20 -20
20 -13 0 -20 -7 -20 -20 0 -11 -4 -20 -10 -20 -5 0 -10 -7 -10 -15 0 -8 5 -15
10 -15 6 0 10 -31 10 -73 0 -77 9 -97 45 -97 28 0 65 27 65 48 0 12 -3 13 -12
4 -7 -7 -22 -12 -35 -12 -21 0 -23 5 -23 45 0 43 1 45 29 45 17 0 33 5 36 10
4 6 -8 10 -29 10 -20 0 -36 5 -36 10 0 6 79 10 218 10 l217 0 27 -58 c16 -31
29 -73 30 -92 l3 -35 38 47 c24 29 40 60 43 85 l5 38 -20 -24 c-12 -13 -21
-31 -21 -42 0 -10 -4 -21 -10 -24 -6 -3 -10 4 -10 17 0 13 -7 36 -15 52 -8 15
-15 30 -15 32 0 2 68 4 151 4 l151 0 -3 -92 c-2 -51 0 -99 4 -105 5 -7 28 -13
53 -13 53 0 58 23 6 28 l-32 3 0 90 c0 82 1 89 20 89 11 0 20 7 20 15 0 9 -9
15 -25 15 -29 0 -34 24 -8 39 10 5 14 13 10 17 -12 12 -42 -10 -45 -33 -3 -20
-10 -21 -164 -22 -97 0 -158 3 -152 8 5 5 23 11 39 13 36 4 41 31 7 36 -14 2
-33 -7 -52 -26z"/>
<path d="M1662 933 c4 -21 33 -25 33 -3 0 8 -8 16 -18 18 -14 3 -18 -1 -15
-15z"/>
<path d="M2074 939 c-3 -6 -2 -15 4 -21 13 -13 32 -2 32 18 0 16 -26 19 -36 3z"/>
<path d="M1790 850 c-8 -5 -25 -7 -37 -3 -22 5 -23 3 -23 -66 0 -56 3 -71 15
-71 12 0 15 13 15 55 0 54 0 55 30 55 59 0 64 -62 9 -125 -43 -49 -15 -44 33
5 46 50 54 105 21 143 -18 19 -40 22 -63 7z"/>
<path d="M800 780 c0 -68 1 -70 25 -70 23 0 24 2 18 50 l-6 50 32 0 c24 0 31
-4 31 -20 0 -23 10 -26 28 -8 17 17 15 43 -4 59 -12 10 -22 10 -47 1 -21 -8
-33 -9 -35 -2 -2 5 -12 10 -23 10 -17 0 -19 -8 -19 -70z"/>
<path d="M972 788 l3 -63 38 -9 c30 -8 40 -7 47 5 7 11 2 16 -20 23 -26 8 -30
14 -30 42 0 32 2 34 35 34 l35 0 0 -60 c0 -55 2 -60 21 -60 19 0 21 4 15 31
-3 17 -6 51 -6 75 l0 44 -70 0 -71 0 3 -62z"/>
<path d="M1332 834 c-23 -16 -31 -54 -11 -54 8 0 8 -5 -1 -15 -21 -26 -4 -45
40 -45 49 0 75 12 91 42 12 22 12 22 -14 5 -44 -29 -108 -19 -67 10 26 18 25
31 -2 36 l-23 4 23 2 c13 0 32 -3 42 -9 20 -11 47 11 35 30 -10 16 -88 12
-113 -6z"/>
<path d="M1660 775 c0 -65 2 -75 18 -75 15 0 17 10 17 75 0 65 -2 75 -17 75
-16 0 -18 -10 -18 -75z"/>
<path d="M2071 775 c-2 -69 0 -75 19 -75 18 0 20 6 20 75 0 67 -2 75 -19 75
-16 0 -18 -9 -20 -75z"/>
<path d="M2140 798 c0 -67 8 -78 59 -85 33 -5 41 -3 41 10 0 9 -12 18 -30 22
-26 6 -30 11 -30 41 0 32 2 34 35 34 l35 0 0 -60 c0 -50 3 -60 18 -60 15 0 17
10 17 75 l0 75 -72 0 -73 0 0 -52z"/>
<path d="M2031 516 c-7 -8 -14 -31 -17 -53 -3 -29 -2 -33 5 -18 5 11 10 30 10
43 1 13 7 22 16 22 8 0 15 5 15 10 0 14 -16 12 -29 -4z"/>
<path d="M2168 501 c-37 -39 -40 -66 -8 -66 18 0 25 6 26 20 2 47 5 55 19 55
8 0 15 5 15 10 0 18 -25 9 -52 -19z"/>
<path d="M2422 513 c-28 -54 -19 -100 13 -73 18 15 20 47 3 53 -9 3 -7 10 7
21 18 13 18 15 3 16 -10 0 -21 -8 -26 -17z"/>
<path d="M2482 513 c-15 -29 -26 -90 -14 -78 6 6 13 23 16 39 3 15 13 34 23
42 17 12 17 13 1 14 -10 0 -21 -8 -26 -17z"/>
<path d="M1893 498 c-14 -21 -17 -71 -3 -66 7 2 14 20 16 41 3 40 1 44 -13 25z"/>
<path d="M1974 499 c-14 -23 -15 -71 -2 -66 7 2 12 12 10 22 -2 10 1 21 7 24
6 4 6 12 2 20 -7 11 -10 11 -17 0z"/>
<path d="M1822 470 c-16 -26 -9 -38 19 -36 17 1 23 8 23 29 2 33 -23 37 -42 7z"/>
<path d="M2073 459 c-1 -19 2 -29 9 -27 14 5 17 58 3 58 -5 0 -11 -14 -12 -31z"/>
<path d="M2204 465 c-8 -32 -1 -40 23 -26 17 10 17 10 -2 11 -18 1 -19 1 -2
11 21 12 22 29 2 29 -8 0 -17 -11 -21 -25z"/>
<path d="M2256 463 c10 -39 13 -41 35 -14 21 26 24 41 8 41 -5 0 -8 -4 -5 -9
3 -5 -2 -15 -11 -22 -14 -12 -15 -11 -9 9 6 16 3 22 -9 22 -12 0 -14 -6 -9
-27z"/>
<path d="M2314 465 c-4 -14 -3 -29 0 -33 11 -11 41 14 44 37 5 32 -36 29 -44
-4z"/>
<path d="M2530 470 c-13 -24 -6 -39 17 -36 22 3 30 56 9 56 -9 0 -20 -9 -26
-20z"/>
<path d="M2580 479 c0 -5 4 -8 9 -5 4 3 6 -6 3 -19 -2 -14 0 -25 5 -25 16 0
45 38 40 52 -4 9 -6 7 -6 -4 -1 -9 -6 -20 -13 -24 -8 -5 -9 0 -6 14 5 17 2 22
-13 22 -10 0 -19 -5 -19 -11z"/>
<path d="M2650 471 c-16 -31 -12 -40 17 -38 21 2 26 8 27 30 2 33 -27 38 -44
8z"/>
</g>
</svg>
